<?xml version="1.0" encoding="UTF-8"?>
<!DOCTYPE svg PUBLIC "-//W3C//DTD SVG 1.1//EN" "http://www.w3.org/Graphics/SVG/1.1/DTD/svg11.dtd">
<!-- Creator: CorelDRAW -->
<svg xmlns="http://www.w3.org/2000/svg" xml:space="preserve" width="36.2797mm" height="29.1452mm" version="1.1" style="shape-rendering:geometricPrecision; text-rendering:geometricPrecision; image-rendering:optimizeQuality; fill-rule:evenodd; clip-rule:evenodd"
viewBox="0 0 429.8 345.28"
 xmlns:xlink="http://www.w3.org/1999/xlink"
 xmlns:xodm="http://www.corel.com/coreldraw/odm/2003">
 <defs>
  <style type="text/css">
   <![CDATA[
    .fil1 {fill:black}
    .fil0 {fill:#FFE38B}
   ]]>
  </style>
 </defs>
 <g id="__x0023_Layer_x0020_1">
  <metadata id="CorelCorpID_0Corel-Layer"/>
  <g id="_13485932096">
   <path class="fil0" d="M318.05 130.79c-0.17,-15.1 -0.34,-30.2 -0.51,-45.31 -3.54,-44.01 -26.61,-55.7 -68.65,-55.7 -43.32,0 -86.65,0 -129.97,0 -8.34,0 -15.67,0.54 -22.13,1.58 -4.61,8.55 -9.25,22.04 -8.89,41.37 0.7,37.67 0.35,132.02 0.35,132.02 -2.49,1.92 -4.99,3.85 -7.48,5.77 -5.27,-4.81 -10.55,-9.61 -15.82,-14.42 0,-42.57 5.17,-66.88 -50.63,-66.83 -2.04,7.73 -6.34,27.01 -6.65,53.18 -0.4,34.41 -4.05,96.76 13.36,105.67 16.4,8.39 333.79,7.44 377.68,3.92 0.06,-0.73 0.09,-1.44 0.09,-2.13 0,-38.4 0,-76.79 0,-115.19 0,-5.79 -2.5,-13.01 -4.97,-18.17 -10.22,-21.4 -34.01,-31.41 -56.77,-25.1 -4.37,1.21 -7.7,3.67 -11.9,4.79 -2.37,0.63 -4.74,1.27 -7.12,1.9 0,-2.46 0,-4.91 0,-7.37z"/>
   <path class="fil1" d="M96.76 102.19l0.16 -40.31c1.13,-27.08 9.98,-44.69 39.94,-44.69 52.03,0 104.06,0 156.1,0 42.58,0 39.95,35.88 40.05,64.39l0.05 112.97 -236.29 0 0 -92.35zm-16 108.34l0 0c89.43,0 178.86,0 268.29,0 0,-21.07 0,-42.14 0,-63.22 0,-39.47 64.75,-43.49 64.75,2.37 0,35.23 0,70.46 0,105.69 0,17.01 -12.97,32.97 -30.6,32.97 -112.2,0 -224.4,0 -336.6,0 -17.63,0 -30.59,-15.96 -30.59,-32.97 0,-35.23 0,-70.46 0,-105.69 0,-32.33 35.76,-42.09 54.28,-25.25 5.67,5.15 10.47,15.15 10.47,22.88 0,21.07 0,42.14 0,63.22zm268.29 -109.53l0 0 -0.51 -45.31c-3.54,-44.01 -26.61,-55.7 -68.65,-55.7 -43.32,0 -86.65,0 -129.97,0 -75.17,0 -69.16,43.99 -69.16,101l0 7.13 -18.21 -5.54c-21.7,-7.34 -37.99,-1.6 -52.88,16.51 -5.07,6.17 -9.65,17.72 -9.65,25.77 -0.02,38.45 -0.02,76.89 0,115.34 0.01,13.01 7.5,24.43 16.78,32.96 16.73,15.36 41.92,12.38 63.97,12.38l0 0.05 10.61 0 0 31.4c0,11.05 17.11,11.05 17.11,0l0 -31.45 212.83 0 0 31.45c0,11.05 17.11,11.05 17.11,0l0 -31.4 10.63 0 0 -0.05c28.85,0 50.03,3.66 70.04,-18.6 5.73,-6.37 10.71,-18.18 10.71,-26.81 0,-38.4 0,-76.79 0,-115.19 0,-5.79 -2.5,-13.01 -4.97,-18.17 -10.22,-21.4 -34.01,-31.41 -56.77,-25.1 -4.37,1.21 -7.7,3.67 -11.9,4.79l-7.12 1.9 0 -7.37z"/>
  </g>
 </g>
</svg>
