<?xml version="1.0" encoding="UTF-8"?>
<!DOCTYPE svg PUBLIC "-//W3C//DTD SVG 1.1//EN" "http://www.w3.org/Graphics/SVG/1.1/DTD/svg11.dtd">
<!-- Creator: CorelDRAW -->
<svg xmlns="http://www.w3.org/2000/svg" xml:space="preserve" width="32.8178mm" height="36.2129mm" version="1.1" style="shape-rendering:geometricPrecision; text-rendering:geometricPrecision; image-rendering:optimizeQuality; fill-rule:evenodd; clip-rule:evenodd"
viewBox="0 0 355.71 392.51"
 xmlns:xlink="http://www.w3.org/1999/xlink"
 xmlns:xodm="http://www.corel.com/coreldraw/odm/2003">
 <defs>
  <style type="text/css">
   <![CDATA[
    .fil1 {fill:black}
    .fil0 {fill:#FF806A}
   ]]>
  </style>
 </defs>
 <g id="__x0023_Layer_x0020_1">
  <metadata id="CorelCorpID_0Corel-Layer"/>
  <g id="_4730031312">
   <path class="fil0" d="M159.77 35.39l18.34 6.79c16.32,5.91 32.97,12.32 49.24,18.22 8.29,3.01 16.59,6.2 24.55,9.18 8.48,3.16 16.2,5.77 24.65,9.09l24.59 9.14c8.17,2.76 20.42,5.7 20.42,12.55l0 283.28 -316.41 2.28 0.87 -208.64 0.03 -0.02c11.79,-4.97 24.16,-10.46 36.68,-16.11l117.46 -51.59 -21.54 9.46 1.29 217.96 22.66 -0.5 -0.08 -136.52 -2.34 -90.4 -0.41 -74.17z"/>
   <path class="fil1" d="M154.86 260.65l0 71.3 -36.75 0 0 -53.66c0,-3.79 -3.11,-6.9 -6.9,-6.9l-50.76 0c-2.34,0 -6.13,3.53 -6.13,7.67l0 52.9 -38.98 0 0 -149.49c0,-2.5 1.24,-2.03 3.23,-2.9l83.38 -36.98c4.7,-2.06 49.9,-22.73 52.92,-22.98 0,5.45 -0.91,72.6 0.74,75.92 2.93,5.91 10.93,5.91 13.86,0 1.87,-3.77 0.74,-170.34 0.74,-176.35 3.85,0.9 7.37,2.49 10.82,3.74l149.31 55.37c5.52,2 10.06,2.64 10.06,5.28l0 293.62 -16.87 0 0 -45.23c0,-9.26 -15.33,-9.26 -15.33,0l0 45.23 -17.63 0 0 -62.85c0,-4.8 -4.25,-7.67 -9.2,-7.67l-52.13 0c-4.95,0 -9.2,2.87 -9.2,7.67l0 62.85 -17.63 0 0 -45.23c0,-9.26 -15.33,-9.26 -15.33,0l0 45.23 -16.87 0 0 -116.53c0,-9.26 -15.33,-9.26 -15.33,0zm-139.52 87.4l0 0 139.52 0 0 29.13 -139.52 0 0 -29.13zm145.07 -348.05l0 0 1.7 0c3.06,0.25 7.31,1.73 13.23,4.06l36.93 13.66c16.32,5.91 32.97,12.32 49.24,18.22 8.29,3.01 16.59,6.2 24.55,9.18 8.48,3.16 16.2,5.77 24.64,9.09l24.59 9.14c8.17,2.76 20.42,5.7 20.42,12.55l0 309.71c0,3.79 -3.11,6.9 -6.9,6.9l-341.91 0c-3.79,0 -6.9,-3.11 -6.9,-6.9l0 -210.05c0,-4.85 3.06,-6.27 6.63,-7.94l29.73 -13.2c31.18,-12.95 66.81,-30.03 98.79,-43.8l14.85 -6.61c2.15,-1.01 2.49,-1.49 4.86,-2.04 0,-18.14 0,-36.29 0,-54.43 0,-34.27 -2.24,-46.76 5.55,-47.53zm-104.75 204.67l0 0 0 42.93c0,4.8 4.25,7.67 9.2,7.67l45.83 0c4.95,0 9.2,-2.87 9.2,-7.67l0 -63.63c0,-25.83 -42.59,6.35 -59.79,13.64 -2.44,1.31 -4.44,3.57 -4.44,7.06zm169.31 -113.16l0 0 0 82.8c0,3.08 4.4,6.13 9.2,6.13l39.1 0c4.95,0 9.2,-2.87 9.2,-7.67l0 -68.23c0,-1.63 -2,-3.86 -3.07,-4.6 -2.53,-1.75 -13.15,-5.13 -17.09,-6.68 -7.47,-2.94 -27.15,-12.23 -34.73,-6.05 -0.91,0.74 -2.6,3.02 -2.6,4.3zm0 115.76l0 0 0 65.16c0,3.79 3.11,6.9 6.9,6.9l42.93 0c3.87,0 7.67,-2.77 7.67,-6.9l0 -65.16c0,-5.68 -4.92,-7.67 -10.73,-7.67l-36.03 0c-5.81,0 -10.73,1.99 -10.73,7.67zm-70.1 18.88l0 0c0,11.2 15.33,11.45 15.33,0 0,-9.26 -15.33,-9.26 -15.33,0zm80.5 96.6l0 0 39.1 0 0 54.42 -39.1 0 0 -54.42z"/>
  </g>
 </g>
</svg>
