<?xml version="1.0" encoding="UTF-8"?>
<!DOCTYPE svg PUBLIC "-//W3C//DTD SVG 1.1//EN" "http://www.w3.org/Graphics/SVG/1.1/DTD/svg11.dtd">
<!-- Creator: CorelDRAW -->
<svg xmlns="http://www.w3.org/2000/svg" xml:space="preserve" width="36.4402mm" height="29.1025mm" version="1.1" style="shape-rendering:geometricPrecision; text-rendering:geometricPrecision; image-rendering:optimizeQuality; fill-rule:evenodd; clip-rule:evenodd"
viewBox="0 0 433.38 346.12"
 xmlns:xlink="http://www.w3.org/1999/xlink"
 xmlns:xodm="http://www.corel.com/coreldraw/odm/2003">
 <defs>
  <style type="text/css">
   <![CDATA[
    .fil1 {fill:black}
    .fil0 {fill:#51A4A8}
   ]]>
  </style>
 </defs>
 <g id="__x0023_Layer_x0020_1">
  <metadata id="CorelCorpID_0Corel-Layer"/>
  <g id="_13527737392">
   <path class="fil0" d="M7.75 41.78c93.79,0 187.57,0 281.36,0 48.71,0 49.9,3.77 49.9,42.97 0,15.2 0,30.41 0,45.61 21.65,0 43.31,0 64.96,0 0,68.9 0,137.8 0,206.7 -34.2,0 -68.39,0 -102.59,0 0,-28.28 0,-56.55 0,-84.83 0,-11.63 0,-23.27 0,-34.9 -98.24,0 -196.47,0 -294.71,0 0.36,-58.52 0.71,-117.04 1.07,-175.56z"/>
   <path class="fil1" d="M364.18 125.87l0 -92.94c0,-8 -7.75,-15.74 -15.74,-15.74l-316.35 0c-9.08,0 -15.74,8.78 -15.74,17.42l0 177.69 280.71 0 0 -67.77c0,-11.18 10.69,-18.66 21.18,-18.66l45.95 0zm-67.13 120.83l0 0 0 -18.06 -280.71 0 0 0.64c0,8.64 6.67,17.42 15.74,17.42l264.96 0zm16.34 39.18l0 0 103.65 0 0 -139.68c0,-3 -2.09,-3.99 -4.83,-3.99l-93.98 0c-1.55,0 -4.83,1.33 -4.83,3.16l0 140.52zm103.67 16.34l0 0 -103.67 0 0 24.39c0,0.91 1.41,2.32 2.32,2.32l99.02 0c2.39,0 2.57,-5.15 2.64,-6.69 0.24,-4.85 -0.2,-15.12 -0.3,-20.02zm-120.02 -38.34l0 0 -98.62 0 0 34.84 72.8 0c12.93,0 10.87,16.34 2.52,16.34l-166.98 0c-8.54,0 -9.63,-16.34 2.52,-16.34l72.81 0 0 -34.84 -141.61 0c-11.45,0 -18.65,-1.26 -27.96,-7.88 -6.89,-4.9 -12.52,-15.68 -12.52,-24.2l0 -199.71c0,-8.23 5.44,-18.95 12,-23.83 8.61,-6.41 16,-8.26 26.8,-8.26l302.92 0c19.1,0 38.8,11.1 38.8,32.09l0 93.78 31.69 0c5.03,0 11.16,1.85 14.93,5.28 3.57,3.26 6.24,8.45 6.24,13.33l0 183.01c0,11.55 -11.38,18.63 -22.02,18.63l-90.62 0c-7.91,0 -14.27,-1.63 -19.36,-7.98 -2.72,-3.39 -4.33,-7.1 -4.33,-11.52l0 -62.73z"/>
  </g>
 </g>
</svg>
