<?xml version="1.0" encoding="UTF-8"?>
<!DOCTYPE svg PUBLIC "-//W3C//DTD SVG 1.1//EN" "http://www.w3.org/Graphics/SVG/1.1/DTD/svg11.dtd">
<!-- Creator: CorelDRAW -->
<svg xmlns="http://www.w3.org/2000/svg" xml:space="preserve" width="36.4469mm" height="33.2671mm" version="1.1" style="shape-rendering:geometricPrecision; text-rendering:geometricPrecision; image-rendering:optimizeQuality; fill-rule:evenodd; clip-rule:evenodd"
viewBox="0 0 433.53 395.71"
 xmlns:xlink="http://www.w3.org/1999/xlink"
 xmlns:xodm="http://www.corel.com/coreldraw/odm/2003">
 <defs>
  <style type="text/css">
   <![CDATA[
    .fil1 {fill:black}
    .fil0 {fill:#3974FF}
   ]]>
  </style>
 </defs>
 <g id="__x0023_Layer_x0020_1">
  <metadata id="CorelCorpID_0Corel-Layer"/>
  <g id="_13522826608">
   <path class="fil0" d="M59.44 192.97c-4.65,1.77 -8.27,4.74 -10.55,8.36l0.09 0 0.22 0 0.22 0 0.22 0 0.22 0 0.22 -0 0.22 0 0.22 0 0.22 0 0.22 0 0.22 0 0.22 0 0.22 0 0.22 0 0.22 -0 0.22 0 0.22 0 0.22 0 0.22 -0 0.22 0 0.22 0 0.22 0 0.22 0 0.22 0 0.22 -0 0.22 0 0.22 0 0.22 0 0.22 0 0.22 0 0.22 0 0.06 -0.11 0.06 -0.11 0.06 -0.11 0.06 -0.12 0 -0.01 0.06 -0.11 0.06 -0.12 0.06 -0.12 0.06 -0.12 0.01 -0.01 0.06 -0.11 0.06 -0.12 0.06 -0.12 0.06 -0.12 0.01 -0.02 0.05 -0.1 0.06 -0.12 0.06 -0.12 0.06 -0.12 0.01 -0.02 0.05 -0.1 0.06 -0.12 0.06 -0.12 0.06 -0.13 0.01 -0.03 0.05 -0.1 0.06 -0.13 0.06 -0.13 0.06 -0.13 0.02 -0.04 0.05 -0.09 0.06 -0.13 0.06 -0.13 0.06 -0.13 0.02 -0.04 0.04 -0.09 0.06 -0.13 0.06 -0.13 0.06 -0.13 0.02 -0.05 0.04 -0.08 0.06 -0.13 0.06 -0.13 0.06 -0.13 0.03 -0.05 0.04 -0.08 0.06 -0.13 0.06 -0.13 0.06 -0.14 0.03 -0.06 0.03 -0.07 0.06 -0.14 0.06 -0.14 0.06 -0.14 0.03 -0.07 0.03 -0.07 0.06 -0.14 0.06 -0.14 0.06 -0.14 0.03 -0.07 0.03 -0.06 0.06 -0.14 0.06 -0.14 0.07 -0.14 0.04 -0.08 0.03 -0.06 0.06 -0.14 0.06 -0.14 0.06 -0.14 0.04 -0.09 0.02 -0.05 0.07 -0.14 0.07 -0.14 0.07 -0.14 0.04 -0.1 0.02 -0.04 0.07 -0.14 0.07 -0.14 0.07 -0.14zm66.83 -6.22l0 0c-0.25,-0.48 -0.5,-0.94 -0.74,-1.38l-0.04 -0.07c-1.19,-2.17 -2.27,-3.95 -3.4,-5.4l-0.04 -0.05 -0.35 -0.43 -0.04 -0.05 -0.34 -0.4 -0.05 -0.06c-0.63,-0.7 -1.28,-1.32 -1.97,-1.85l-0.05 -0.04 -0.39 -0.29 -0.05 -0.03c-0.13,-0.09 -0.26,-0.18 -0.4,-0.26l-0.08 -0.05 -0.38 -0.23 -0.12 -0.07 -0.37 -0.2 -0.11 -0.06c-0.93,-0.48 -1.96,-0.86 -3.12,-1.16l-0.13 -0.03 -0.44 -0.11 -0.25 -0.06 -0.4 -0.08 -0.3 -0.06 -0.39 -0.07 -0.33 -0.06 -0.4 -0.06 -0.31 -0.04 -0.53 -0.07 -0 0 -0.66 -0.08 -0.1 -0.01 -0.29 -0.03 -0.51 -0.05 -0.83 -0.07 -0.73 -0.05 -0.16 -0.01 -0.54 -0.03 -0.47 -0.02 -0.62 -0.03 -0.26 -0.01 -0.64 -0.02 -0.53 -0.01 -0.26 -0.01 -0.46 -0.01 -0.69 -0.01 -0.35 -0.01 -0.85 -0.01 -0.24 -0 -1.01 -0.01 -0.12 -0 -1.18 -0 -0.01 0 -1.21 -0 -0.15 0 -1.12 0 -0.31 0 -1.01 0 -0.47 0 -0.89 0 -0.65 0 -0.77 0c3.77,-5.65 8.78,-10.06 16.28,-10.06 43.81,0 36.77,-2.95 53.01,27.73 9.43,0 19.95,-1.11 26.24,2.3 5.47,2.96 11.27,9.22 11.27,17.27l0 86.44c0,9.84 -9.73,19.57 -19.57,19.57l-11.48 0 0.08 -0.14 0.01 -0.01 0.07 -0.13 0.08 -0.14 0.01 -0.02 0.12 -0.21 0.03 -0.05 0.08 -0.14 0.08 -0.14 0 -0.01 0.07 -0.13 0.07 -0.14 0.07 -0.14 0 -0.01 0.14 -0.27 0.07 -0.14 0 -0.01 0.06 -0.13 0.07 -0.14 0.07 -0.14 0 -0.01 0.06 -0.13 0.07 -0.15 0.06 -0.14 0 -0.01 0.06 -0.14 0.1 -0.25 0.02 -0.04 0 -0.01 0.06 -0.14 0.06 -0.15 0.06 -0.15 0 -0.01 0.05 -0.14 0.05 -0.15 0.05 -0.15 0 -0 0.01 -0.02 0.13 -0.37 0.01 -0.05 0 -0 0.05 -0.14 0.05 -0.15 0.04 -0.15 0 -0 0.02 -0.06 0.1 -0.36 0 -0.02 0 -0 0 -0.02 0.1 -0.4 0 -0.02 0 -0 0.01 -0.02 0.09 -0.39 0.01 -0.03 0 -0 0.03 -0.15 0.05 -0.27 0.01 -0.04 0 -0 0.01 -0.03 0.07 -0.42 0 -0 0.02 -0.15 0.04 -0.31 0.03 -0.31 0.02 -0.15 0 -0 0.03 -0.46 0.02 -0.46 0.01 -0.46 0 -86.44c0,-8.06 -5.8,-14.31 -11.27,-17.27 -6.29,-3.41 -16.81,-2.3 -26.24,-2.3l-0.67 -1.27 -0.07 -0.14 -0.57 -1.09 -0.14 -0.27 -0.48 -0.92 -0.21 -0.4 -0.09 -0.17 -0.57 -1.1 -0.31 -0.61 -0.32 -0.62 -0.24 -0.46 -0.36 -0.72 -0.17 -0.33 -0.41 -0.81 -0.11 -0.2 -0.45 -0.89 -0.05 -0.09 -0.48 -0.94 -0.01 -0.02 -0.45 -0.89 -0.06 -0.12 -0.39 -0.75 -0.79 -1.51 -0.14 -0.26zm274.46 198.24l0 0c0.53,-2.46 0.81,-4.97 0.81,-7.5l0 -319c0,-21.87 -12.92,-30.22 -32.19,-30.22l-352.46 0c-3.17,4.64 -3.63,-0.92 -6.2,13.62 -2.57,14.54 -2.18,318.56 -2.18,318.56 0,0 -4.36,29.08 57.44,29.81 41.47,0.49 221.07,-2.95 334.77,-5.27z"/>
   <path class="fil1" d="M-0 39.8l0 316.12c0,19.41 20.39,39.8 39.8,39.8l353.94 0c19.7,0 39.79,-20.13 39.79,-41.49l0 -312.73c0,-21.87 -20.53,-41.49 -39.79,-41.49l-353.94 0c-19.45,0 -39.8,20.34 -39.8,39.8zm14.4 7.62l0 0c0,-21.13 11.89,-33.02 33.02,-33.02l338.7 0c21.13,0 33.02,11.89 33.02,33.02l0 38.95 -404.75 0 0 -38.95zm0 300.88l0 0 0 -246.68 404.75 0 0 246.68c0,21.13 -11.89,33.02 -33.02,33.02l-338.7 0c-21.13,0 -33.02,-11.89 -33.02,-33.02z"/>
   <path class="fil1" d="M86.37 49.96c0,30.19 44.03,29 44.03,0.85 0,-12.39 -9.23,-22.01 -23.71,-22.01 -10.27,0 -20.32,10.7 -20.32,21.17zm15.24 0.85l0 0c0,-9.26 13.55,-9.26 13.55,0 0,9.09 -13.55,9.09 -13.55,0z"/>
   <path class="fil1" d="M28.79 49.11c0,21.62 22.84,30.95 37.49,16.32 3.48,-3.48 4.45,-5.03 5.68,-10.44 2.84,-12.55 -5.85,-26.2 -22.84,-26.2 -10.22,0 -20.32,10.1 -20.32,20.32zm22.02 8.47l0 0c-8.93,0 -9.34,-13.55 -0.85,-13.55 11.63,0 8.36,13.55 0.85,13.55z"/>
   <path class="fil1" d="M82.13 189.34c-4.8,0 -9.61,0.02 -14.41,-0.01 -14.84,-0.1 -24.54,9.49 -24.54,20.33l0 89.75c0,9.83 10.49,20.32 20.32,20.32l118.54 0c10.22,0 20.32,-10.11 20.32,-20.32l0 -89.75c0,-8.36 -6.02,-14.86 -11.7,-17.94 -6.54,-3.54 -17.46,-2.39 -27.25,-2.39 -16.86,-31.86 -9.55,-28.79 -55.04,-28.79 -15.69,0 -20.87,18.63 -26.25,28.79zm30.48 -14.39l0 0c12.09,0 25.79,-2.22 29.41,4.46 1.36,2.51 3.87,7.39 4.46,9.93l-47.42 0c1.4,-6.03 5.38,-14.39 13.55,-14.39zm-18.63 71.97l0 0 -28.79 0c-3.09,0 -6.77,-2.34 -6.77,-5.08l0 -31.33c0,-3.95 1.98,-5.93 5.93,-5.93l116.85 0c5.14,0 6.78,4.27 6.78,9.31 0,39.62 4.87,33.02 -36.41,33.02 0,-9.24 -7.01,-14.4 -14.39,-14.4l-28.79 0c-7.87,0 -14.39,6.4 -14.39,14.4zm87.22 57.58l0 0 -117.7 0c-2.04,0 -5.08,-3.04 -5.08,-5.08l0 -38.1c3.83,0.08 3.37,0.85 7.62,0.85l27.94 0c0,7.99 6.52,14.39 14.39,14.39 14.17,0 31.88,2.36 39.1,-4.08 2.67,-2.38 4.08,-5.43 4.08,-10.31l27.1 0c4.7,0 5.02,-0.85 9.31,-0.85l0 33.87c0,5.04 -1.63,9.31 -6.78,9.31z"/>
   <path class="fil1" d="M231.16 225.28l0 31.33c0,6.49 7.56,12.7 14.39,12.7l28.79 0c19.21,0 15.24,-24.15 15.24,-41.49 0,-9.59 -5.86,-16.93 -15.24,-16.93l-28.79 0c-7.74,0 -14.39,6.66 -14.39,14.4z"/>
   <path class="fil1" d="M231.16 151.61l0 31.33c0,18.16 24.51,14.4 40.64,14.4 21.92,0 17.78,-20.73 17.78,-41.49 0,-9.24 -5.29,-16.93 -14.4,-16.93l-31.33 0c-5.96,0 -12.7,6.74 -12.7,12.7z"/>
   <path class="fil1" d="M231.16 297.26l0 31.33c0,5.96 6.74,12.7 12.7,12.7l31.33 0c18.16,0 14.4,-24.51 14.4,-40.64 0,-21.7 -21.44,-17.78 -39.8,-17.78 -9.9,0 -18.63,4.27 -18.63,14.39zm14.39 0.85l0 0 28.79 0 0 28.79 -28.79 0 0 -28.79z"/>
   <path class="fil1" d="M303.14 326.04c0,5.09 3.59,8.47 8.47,8.47l69.43 0c13.39,0 10.94,-15.24 1.69,-15.24l-71.97 0c-3.78,0 -7.62,3.43 -7.62,6.77z"/>
   <path class="fil1" d="M303.14 182.1c0,4.19 3.44,7.62 7.62,7.62l71.97 0c9.16,0 12.06,-15.24 -2.54,-15.24l-66.89 0c-5.31,0 -10.16,2.76 -10.16,7.62z"/>
   <path class="fil1" d="M303.14 254.07c0,3.49 2.85,7.62 5.93,7.62l74.51 0c10.27,0 7.26,-14.39 0.85,-14.39l-73.67 0c-3.78,0 -7.62,3.43 -7.62,6.77z"/>
   <path class="fil1" d="M303.14 297.26c0,5.75 4.31,8.47 10.16,8.47l31.33 0c11.31,0 10.36,-9.94 7.76,-12.84 -0.58,-0.65 -3.18,-2.4 -4.37,-2.4l-37.26 0c-3.78,0 -7.62,3.43 -7.62,6.77z"/>
   <path class="fil1" d="M303.14 154.16c0,3.34 3.84,6.77 7.62,6.77l35.56 0c10.02,0 11.3,-15.24 -1.69,-15.24l-33.02 0c-4.87,0 -8.47,3.37 -8.47,8.47z"/>
   <path class="fil1" d="M303.14 225.28c0,3.31 3.23,7.62 5.93,7.62l38.1 0c9.15,0 9.15,-14.39 0,-14.39l-38.1 0c-2.8,0 -5.93,3.94 -5.93,6.77z"/>
  </g>
 </g>
</svg>
