<?xml version="1.0" encoding="UTF-8"?>
<!DOCTYPE svg PUBLIC "-//W3C//DTD SVG 1.1//EN" "http://www.w3.org/Graphics/SVG/1.1/DTD/svg11.dtd">
<!-- Creator: CorelDRAW -->
<svg xmlns="http://www.w3.org/2000/svg" xml:space="preserve" width="33.6036mm" height="26.017mm" version="1.1" style="shape-rendering:geometricPrecision; text-rendering:geometricPrecision; image-rendering:optimizeQuality; fill-rule:evenodd; clip-rule:evenodd"
viewBox="0 0 371.98 288"
 xmlns:xlink="http://www.w3.org/1999/xlink"
 xmlns:xodm="http://www.corel.com/coreldraw/odm/2003">
 <defs>
  <style type="text/css">
   <![CDATA[
    .fil1 {fill:black}
    .fil0 {fill:#14DFE2}
   ]]>
  </style>
 </defs>
 <g id="__x0023_Layer_x0020_1">
  <metadata id="CorelCorpID_0Corel-Layer"/>
  <g id="_14084449408">
   <path class="fil0" d="M352.02 228.09l0 -66.01c0,-7.94 -3.33,-15.2 -6.3,-20.58 -5.01,-9.09 -14.21,-13.81 -17.57,-23.11 -1.28,-3.53 -2.42,-6.73 -3.74,-10.06l-14.74 -39.75c-4.97,-12.68 -8.46,-28.58 -18.25,-36.24 -5.09,-3.98 -11.36,-7.56 -20.05,-7.56l-207.06 0 -0.53 0.01c-13.37,34.45 -30.41,74.53 -37.08,80.87 -11.83,11.24 -17.75,59.15 -17.75,91.09 0,31.94 13.01,36.08 52.65,35.49 39.63,-0.59 270.45,5.91 290.42,-4.14z"/>
   <path class="fil1" d="M-0 140.22l0 116.24c0,15.8 15.44,31.24 31.24,31.24 23.12,0 34.39,3.25 48.51,-11.79 9,-9.59 8.16,-23.99 8.16,-37.61l196.16 0c0,13.62 -0.84,28.02 8.16,37.61 14.12,15.04 25.39,11.79 48.51,11.79 15.8,0 31.24,-15.44 31.24,-31.24l0 -119.15c0,-7.94 -3.34,-15.2 -6.3,-20.58 -5.01,-9.09 -14.21,-13.81 -17.57,-23.11 -1.28,-3.53 -2.42,-6.73 -3.74,-10.07l-14.74 -39.75c-4.97,-12.68 -8.46,-28.58 -18.25,-36.24 -5.09,-3.98 -11.36,-7.56 -20.05,-7.56l-207.06 0c-14.25,0 -25.65,11.91 -30.25,25.69 -6.32,18.92 -15.72,41.47 -22.51,61.04 -7.57,21.84 -13.63,13.99 -24.68,31.99 -3.5,5.71 -6.84,12.72 -6.84,21.49zm204.88 -46.5l0 0 -158.38 0 23.96 -65.4c1.39,-3.6 2.65,-6.02 5.95,-8.58 2.95,-2.29 6.48,-3.76 11.5,-3.76l201.25 0c8.89,0 14.52,4.77 17.45,12.34l23.96 65.4 -18.16 0c0,-20.59 -25.05,-46.5 -50.13,-46.5 -14.94,0 -21.05,1.28 -33.85,9.02 -11.48,6.94 -23.55,24.89 -23.55,37.48zm53.76 -30.51l0 0c19.13,0 36.74,16.5 37.05,30.51l-74.83 0c2.54,-5.29 2.4,-12.66 12.97,-21.18 7.08,-5.72 14.69,-9.34 24.81,-9.34zm-242.66 140.95l0 0 0 -57.4c0,-9.72 2.39,-17.47 7.08,-22.71 2.25,-2.51 13.34,-14.35 16.17,-14.35l297.87 0c2.81,0 8.37,7.79 10,9.61 6.65,7.45 8.89,12.56 8.89,25.99l0 58.85c0,10.34 -7.14,18.16 -17.44,18.16l-305.14 0c-10.3,0 -17.44,-7.83 -17.44,-18.16zm0 29.79l0 0c3.36,2.25 8.28,4.36 13.8,4.36l41.41 0 0 17.44c0,9.12 -8.62,15.98 -18.16,15.98 -14.89,0 -30.2,2.76 -35.62,-10.88 -2.59,-6.53 -1.44,-18.12 -1.44,-26.9zm321.85 37.78l0 0 -18.89 0c-9.54,0 -18.16,-6.86 -18.16,-15.98l0 -17.44 41.41 0c5.53,0 10.45,-2.11 13.81,-4.36 0,8.19 1.02,20 -1.24,26.37 -2.25,6.37 -8.56,11.41 -16.93,11.41z"/>
   <path class="fil1" d="M258.64 152.57l0 34.87c0,7.28 2.94,11.62 10.17,11.62l55.22 0c7.63,0 10.9,-3.27 10.9,-10.9l0 -37.05c0,-7.23 -4.34,-10.17 -11.62,-10.17l-53.04 0c-8.03,0 -11.62,3.56 -11.62,11.62z"/>
   <path class="fil1" d="M37.05 151.12l0 37.05c0,7.63 3.27,10.9 10.9,10.9l55.22 0c7.23,0 10.17,-4.34 10.17,-11.62l0 -34.87c0,-8.07 -3.6,-11.62 -11.62,-11.62l-53.04 0c-7.28,0 -11.62,2.94 -11.62,10.17z"/>
   <path class="fil1" d="M139.49 182.36c0,5.28 4.04,8.72 9.44,8.72l74.11 0c3,0 4.94,-0.8 6.53,-2.19 5.42,-4.76 3.71,-14.52 -7.98,-14.52l-71.2 0c-6.17,0 -10.9,3.18 -10.9,7.99z"/>
   <path class="fil1" d="M139.49 158.38c0,4.65 4.48,7.99 9.44,7.99l74.11 0c12.25,0 13.81,-16.71 -2.18,-16.71l-69.75 0c-6.31,0 -11.62,2.55 -11.62,8.72z"/>
   <path class="fil1" d="M258.64 152.57l0 34.87c0,7.28 2.94,11.62 10.17,11.62l55.22 0c7.63,0 10.9,-3.27 10.9,-10.9l0 -37.05c0,-7.23 -4.34,-10.17 -11.62,-10.17l-53.04 0c-8.03,0 -11.62,3.56 -11.62,11.62z"/>
   <path class="fil1" d="M37.05 151.12l0 37.05c0,7.63 3.27,10.9 10.9,10.9l55.22 0c7.23,0 10.17,-4.34 10.17,-11.62l0 -34.87c0,-8.07 -3.6,-11.62 -11.62,-11.62l-53.04 0c-7.28,0 -11.62,2.94 -11.62,10.17z"/>
   <path class="fil1" d="M139.49 182.36c0,5.28 4.04,8.72 9.44,8.72l74.11 0c3,0 4.94,-0.8 6.53,-2.19 5.42,-4.76 3.71,-14.52 -7.98,-14.52l-71.2 0c-6.17,0 -10.9,3.18 -10.9,7.99z"/>
   <path class="fil1" d="M139.49 158.38c0,4.65 4.48,7.99 9.44,7.99l74.11 0c12.25,0 13.81,-16.71 -2.18,-16.71l-69.75 0c-6.31,0 -11.62,2.55 -11.62,8.72z"/>
  </g>
 </g>
</svg>
