<?xml version="1.0" encoding="UTF-8"?>
<!DOCTYPE svg PUBLIC "-//W3C//DTD SVG 1.1//EN" "http://www.w3.org/Graphics/SVG/1.1/DTD/svg11.dtd">
<!-- Creator: CorelDRAW -->
<svg xmlns="http://www.w3.org/2000/svg" xml:space="preserve" width="17.108mm" height="35.4609mm" version="1.1" style="shape-rendering:geometricPrecision; text-rendering:geometricPrecision; image-rendering:optimizeQuality; fill-rule:evenodd; clip-rule:evenodd"
viewBox="0 0 101.96 211.33"
 xmlns:xlink="http://www.w3.org/1999/xlink"
 xmlns:xodm="http://www.corel.com/coreldraw/odm/2003">
 <defs>
  <style type="text/css">
   <![CDATA[
    .fil1 {fill:black}
    .fil0 {fill:#F08EBD}
   ]]>
  </style>
 </defs>
 <g id="__x0023_Layer_x0020_1">
  <metadata id="CorelCorpID_0Corel-Layer"/>
  <g id="_13430883088">
   <path class="fil0" d="M81.76 204.5c0.21,-1.16 0.32,-2.35 0.32,-3.56l0 -88.3c0,-5.98 -1.93,-9.26 -5.13,-14.04l-0.74 -1.1 0.74 -1.1c3.72,-5.56 6.91,-9.82 4.86,-16.93 -2.1,-7.27 -5.03,-8.87 -11.29,-12.18l-1.05 -0.56 0 -1.19c0,-10.23 -2.29,-17.99 -10.99,-23.94 -2.03,-1.39 -5.31,-3.32 -7.8,-3.52l-1.81 -0.15 0 -1.82c0,-6.43 0.53,-12.22 -3.07,-17.83 -1.4,-2.19 -3.26,-3.95 -5.4,-5.22 -1,1.71 -1.63,3.38 -1.9,5.48 -0.39,3.11 -0.16,6.75 -0.16,9.91l0 1.18 -1.06 0.51c-2.16,1.03 -4.5,1.6 -6.67,2.67 -3.02,1.49 -5.32,3.64 -7.36,6.3 -4.2,5.5 -5.17,11.1 -5.17,17.94l0 1.48 -1.44 0.34c-3.92,0.91 -7.27,5.04 -8.77,8.58 -2.23,5.26 -1.61,10.77 1.62,15.48 0.59,0.87 1.33,1.59 1.92,2.47l0.47 0.7 -0.22 0.82c-0.49,1.82 -2.29,3.44 -3.22,5.19 -1.95,3.68 -2.27,8.93 -2.27,12.99l0 75.46c0,7 0.62,11.42 4.93,16.96 3.06,3.93 9.2,6.99 14.23,6.99l56.44 0z"/>
   <path class="fil1" d="M21.7 51.42c0,-7.38 5.73,-14.44 13.01,-15.78 1.81,-0.33 4.93,-0.18 6.36,-1.26 5.53,-4.21 -2,-19.11 5.43,-24.15 3.91,-2.65 8.71,-1.81 11.31,2.16 1.78,2.7 1.49,5.27 1.48,8.35 -0.01,2.83 -0.82,11.37 1.36,13.32 1.05,0.94 5.31,1.41 6.81,1.76 4.54,1.06 7.83,3.24 10.2,7.33 2.45,4.23 2.23,6.14 2.23,10.8l0 1.98 -58.2 0 0 -4.5zm62.53 29.73l0 0 -65.59 0c-2.31,0 -4.22,-0.4 -6.09,-1.8 -2.64,-1.98 -3.67,-5.66 -2.81,-8.79 1.13,-4.11 4.85,-5.98 8.89,-5.98l65.6 0c11.48,0 11.48,16.57 0,16.57zm-75.14 20.31l0 0c0,-2.78 1.23,-5.41 2.93,-7.56 1.53,-1.92 4.96,-4.09 7.45,-4.09l62.23 0c5.41,0 10.81,5.39 10.81,10.81l0 90.82c0,6.65 -6.7,11.23 -12.91,11.23l-56.76 0c-6.73,0 -11.49,-2.76 -13.17,-9.4 -1.26,-4.97 -0.58,-10.61 -0.58,-15.71l0 -1.98 19.22 0c4.73,0 4.73,-8.66 0,-8.66l-19.22 0 0 -16.57 31.83 0c4.73,0 4.73,-8.66 0,-8.66l-31.83 0 0 -16.57 19.22 0c4.73,0 4.73,-8.66 0,-8.66l-19.22 0 0 -15.01zm40.77 -101.46l0 0c-5.12,0.37 -9.8,2.91 -12.69,7.19 -1.59,2.35 -2.57,4.44 -2.93,7.25 -0.42,3.29 -0.17,7.15 -0.17,10.49l0 1.24 -1.12 0.54c-2.28,1.1 -4.76,1.69 -7.06,2.82 -3.2,1.57 -5.64,3.85 -7.79,6.67 -4.45,5.82 -5.47,11.75 -5.47,18.99l0 1.57 -1.53 0.36c-4.15,0.97 -7.7,5.34 -9.29,9.09 -2.36,5.57 -1.7,11.4 1.71,16.39 0.63,0.92 1.41,1.68 2.04,2.61l0.5 0.74 -0.23 0.87c-0.51,1.92 -2.43,3.64 -3.41,5.5 -2.07,3.9 -2.41,9.45 -2.41,13.76l0 79.89c0,7.41 0.65,12.09 5.22,17.96 3.24,4.16 9.74,7.4 15.06,7.4l61.85 0c4.91,0 9.73,-2.7 13.1,-6.13 3.94,-4.01 6.35,-9.36 6.35,-15.01l0 -88.3c0,-5.98 -1.93,-9.26 -5.13,-14.04l-0.74 -1.1 0.74 -1.1c3.72,-5.56 6.91,-9.82 4.86,-16.93 -2.1,-7.27 -5.02,-8.87 -11.29,-12.18l-1.05 -0.56 0 -1.19c0,-10.23 -2.29,-17.99 -10.99,-23.94 -2.03,-1.39 -5.31,-3.32 -7.8,-3.52l-1.81 -0.15 0 -1.82c0,-6.43 0.53,-12.22 -3.07,-17.83 -2.86,-4.46 -7.58,-7.13 -12.84,-7.52l-2.61 0z"/>
  </g>
 </g>
</svg>
