<?xml version="1.0" encoding="UTF-8"?>
<!DOCTYPE svg PUBLIC "-//W3C//DTD SVG 1.1//EN" "http://www.w3.org/Graphics/SVG/1.1/DTD/svg11.dtd">
<!-- Creator: CorelDRAW -->
<svg xmlns="http://www.w3.org/2000/svg" xml:space="preserve" width="34.0926mm" height="34.0852mm" version="1.1" style="shape-rendering:geometricPrecision; text-rendering:geometricPrecision; image-rendering:optimizeQuality; fill-rule:evenodd; clip-rule:evenodd"
viewBox="0 0 382.27 382.19"
 xmlns:xlink="http://www.w3.org/1999/xlink"
 xmlns:xodm="http://www.corel.com/coreldraw/odm/2003">
 <defs>
  <style type="text/css">
   <![CDATA[
    .fil1 {fill:black}
    .fil0 {fill:#719AFB}
   ]]>
  </style>
 </defs>
 <g id="__x0023_Layer_x0020_1">
  <metadata id="CorelCorpID_0Corel-Layer"/>
  <g id="_13923027376">
   <path class="fil0" d="M133.34 31l14.4 -15.88 10.84 15.88 42.72 0c4.73,0 6.25,2.66 7.99,6.52l10.29 26.81c2.88,0.49 7.55,2.37 9.98,3.29 3.73,1.41 7.46,2.95 11.21,4.29 20.72,7.39 40.7,15.99 60.92,24.62 7.64,3.26 12.59,6.56 15,14.94 1.05,3.63 1.52,9.51 1.99,13.33 0.98,7.93 1.85,15.87 2.72,23.81 1.43,13.13 2.62,26.43 4.28,39.52 5.42,42.64 8.82,85.52 14.24,128.17l5.7 51.28 0.07 0.74 -15.09 2.16 -25.33 -82.34c0,0 -12,35.33 -19.67,48 -1.56,2.58 -48.5,35.31 -74,36.33 -8.33,0.33 -15,-39.33 -20,-39.67 -5,-0.33 -14.33,35.33 -20,39 -5.67,3.67 -64,-20.67 -66.34,-21.33 -2.33,-0.67 -32.67,20.33 -40.33,20.67 -7.67,0.33 -50.33,-88.67 -54,-102.34 -3.67,-13.67 -2,-81.34 -3.33,-103.34 -1.33,-22 19,-45.33 26,-66.67 7,-21.33 52.95,-43.86 77,-51.67 9.7,-3.15 17.16,-9.57 22.75,-16.14z"/>
   <path class="fil1" d="M148.72 23.75c-1.03,2.22 -1.84,4.57 -2.75,6.83 -0.84,2.11 -2.71,5.64 -3.09,7.69 -0.47,4.01 16.03,34.73 19.61,45.6 1.31,-1.01 2.59,-2.15 3.85,-3.16l10.08 -8.11c1.61,-1.3 2.46,-2.39 4.07,-3.16l-24.43 -35.12c-1.36,-2.06 -2.88,-3.98 -4.27,-6 -0.95,-1.37 -1.88,-3.22 -3.07,-4.57zm70.95 60.12l0 0c0.79,-2.33 2.07,-4.94 3.01,-6.96l14.2 -31.67c0.69,-1.58 2.62,-5.17 2.41,-6.86l-5.78 -14.13 -28.64 40.28c-1.12,1.64 -2.2,3.31 -3.3,4.98 2.97,1.65 7.42,5.66 9.44,7.31 1.74,1.42 3.48,2.83 5.24,4.23 1.14,0.91 2.26,1.91 3.43,2.81zm-28.44 -26.12l0 0 19.04 -27.66c1.28,-1.59 2.37,-3.38 3.48,-5.05l1.34 -1.95c0.45,-0.62 0.89,-1.26 1.32,-1.92l0.05 -0.07c0.7,-1.07 1.38,-2.15 2.13,-3.2 0.77,-1.07 1.41,-1.9 2.03,-2.85l-59.06 0c0.74,1.12 1.52,2.1 2.36,3.33l0.18 0.27c2.55,3.73 4.81,7.95 7.79,11.36l0.05 0.05 19 27.68 0.31 0zm-115.83 156.32l0 0 0.54 -143.13c-1.04,0.44 -2.22,1.02 -2.92,1.34 -2.74,1.25 -5.46,2.55 -8.16,3.87 -2.73,1.33 -5.45,2.67 -8.15,4.06 -1.32,0.67 -3.25,1.57 -4.44,2.41 -2.06,1.45 -2.2,3.09 -3.3,5.35 -1.04,2.12 -2.11,4.23 -3.17,6.34 -5.58,11.16 -11.33,22.24 -16.92,33.4 -3.23,6.45 -6.45,12.92 -9.54,19.44 -0.75,1.58 -4.11,8.43 -4.27,9.93l0 99.64c0.25,1.89 4.75,10.88 5.72,12.91 4.1,8.55 8.34,17.05 12.59,25.53 7.07,14.12 14.32,28.15 21.38,42.27 2.36,4.71 4.81,9.39 7.17,14.1 1.35,2.69 4.31,8.15 5.61,11.7l20.02 -13.35c1.41,-0.94 6.09,-3.87 6.16,-5.86 0.02,-0.64 -0.29,-1.43 -0.52,-2.02l-0.03 -0.08 -0.02 -0.08c-4.9,-20.23 -9.81,-40.46 -14.34,-60.77 -1.19,-5.33 -2.74,-10.7 -4.23,-15.95 -2.14,-7.53 -4.37,-15.04 -6.63,-22.54 -4.1,-13.61 -8.29,-27.22 -12.61,-40.77 -1.6,-5.03 -3.48,-10.08 -4.68,-15.22l-0.27 -1.17 1.17 -0.27c2.77,-0.65 5.4,-1.45 8.09,-2.36 1.21,-0.41 3.06,-1.15 4.34,-0.86 1.53,0.35 2.11,1.86 2.55,3.19 0.79,2.38 1.41,4.86 2.17,7.26 1.09,3.42 2.08,6.87 3.16,10.28 1.09,3.42 2.07,6.87 3.17,10.28l0.36 1.12zm230.8 -144.06l0 0 0 142.42c0,7.18 0.65,11.38 2.02,18.29 1.51,7.62 3.21,15.26 4.82,22.87 3.2,15.1 6.39,30.21 9.56,45.32 3.16,15.05 6.31,30.09 9.37,45.16 1.05,5.15 2.09,10.3 3.08,15.46 0.27,1.41 0.77,3.59 1.04,5.39 4.55,-1.84 10.51,-3.02 15.08,-4.31 5.03,-1.41 10,-3.11 15.07,-4.36 -0.09,-1.42 -0.31,-2.86 -0.52,-4.26 -2.06,-19.11 -4.65,-38.14 -6.47,-57.26 -3.48,-36.4 -8.53,-72.63 -12.01,-109.03 -2.91,-30.41 -7.58,-60.66 -10.19,-91.08 -0.41,-4.76 0.28,-10.92 -4.59,-13.53l-13.8 -5.9c-4.02,-1.66 -8.23,-3.95 -12.46,-5.2zm-147.97 248.84l0 0 0 -15.07 15.07 0 0 15.07 -15.07 0zm0 -63.29l0 0 0 -15.07 15.07 0 0 15.07 -15.07 0zm0 -63.29l0 0 0 -15.07 15.07 0 0 15.07 -15.07 0zm0 -63.29l0 0 0 -15.07 15.07 0 0 15.07 -15.07 0zm25.32 -42.21l0 0 -16.47 13.22c-3.94,3.25 -8.92,5.74 -13.01,1.35 -2.73,-2.93 -4.38,-8.15 -6.03,-11.83l-14.69 -32.8c-1.03,-2.47 -2.22,-4.85 -3.34,-7.26l-33.55 12.12c-1.39,0.49 -3.54,1.05 -4.79,1.73 -0.58,0.31 -0.64,0.53 -0.64,1.19l0 198.57c0,3.54 1.03,6.44 1.75,9.83l6.29 26.92c1.56,6.68 5.91,31.54 8.9,35.54 12.4,16.54 36.79,30.94 57.8,30.94 1.74,0 2.09,-3.65 2.52,-5l7.12 -21.38c1.58,-4.75 3.16,-9.49 4.75,-14.24 1.99,-5.98 3.42,-8.47 3.42,-15.12l-0.02 -223.77zm46.71 67.52l0 0 0 31.91c4.98,1.7 15.58,8.4 17.78,8.4 2.49,-0.05 13.02,-6.62 17.78,-8.37l0 -31.94 -35.57 0zm-15.07 -7.53l0 0c0,-4.49 3.04,-7.53 7.53,-7.53l50.63 0c4.49,0 7.53,3.04 7.53,7.53l0 44.3c0,6.94 -10.12,10.15 -15.17,12.68 -20.85,10.42 -15.49,9.54 -36.15,-0.79 -5.08,-2.54 -14.38,-5.04 -14.38,-11.89l0 -44.3zm36.76 -97.58l0 0 -6.08 14.08c-1.96,4.8 -4.37,9.41 -6.32,14.23 -2.17,5.35 -8.75,23.5 -14.41,25.94 -2.59,1.12 -5.1,-0.08 -7.29,-1.51 -3.19,-2.08 -6.3,-4.86 -9.32,-7.22 -2.08,-1.62 -4.13,-3.28 -6.17,-4.95 -1.23,-1 -2.47,-2.11 -3.75,-3.12l-0.03 224.7c-0,5.18 3.71,15.94 5.38,21.01 2.48,7.5 5.24,14.9 7.73,22.38 1,2.99 1.95,7.43 3.18,10.15 0.67,1.47 1.58,1.39 3.09,1.39 8.54,0 23.09,-4.92 30.52,-9.09 28.45,-15.92 42.64,-42.84 42.64,-75.15l0 -217.56c0,-1.85 -7.4,-3.57 -8.95,-4.18l-20.67 -7.8c-2.72,-1.03 -6.55,-2.82 -9.57,-3.32zm-123.95 -15.85l0 0c1.97,-5.44 4.32,-10.71 6.47,-16.08 2.27,-5.69 4.7,-17.26 12.31,-17.26l88.61 0c4.73,0 6.25,2.66 7.99,6.52l10.29 26.81c2.88,0.49 7.55,2.37 9.98,3.29 3.73,1.41 7.46,2.95 11.21,4.29 20.72,7.39 40.7,15.99 60.92,24.62 7.64,3.26 12.59,6.56 15,14.94 1.05,3.63 1.52,9.51 1.99,13.33 0.98,7.93 1.85,15.87 2.72,23.81 1.43,13.13 2.62,26.43 4.28,39.52 5.42,42.64 8.82,85.52 14.24,128.17l5.7 51.28c0.64,6.63 1.58,13.18 2.27,19.78 0.3,2.86 0.76,7.02 -0.75,9.61 -1.5,2.56 -4.81,3.57 -7.48,4.35 -5.41,1.58 -10.85,2.86 -16.26,4.54 -4.49,1.39 -9.03,2.62 -13.55,3.89 -9.63,2.71 -18.99,8.26 -21.86,-5.53 -3.13,-15.04 -6.39,-30.05 -9.53,-45.09 -1.87,-8.98 -3.73,-17.97 -5.49,-26.98 -0.39,-2.02 -0.79,-4.05 -1.16,-6.08 -2.31,28.17 -16.42,51.61 -39.35,68.96 -13.63,10.31 -34.5,18.1 -51.7,18.1 -3.77,0 -8.44,0.4 -10.95,-3.01 -2.31,-3.15 -4.81,-12.78 -6.12,-16.69 -1.25,-3.75 -2.66,-7.46 -3.94,-11.2 -0.82,-2.4 -2.06,-5.87 -2.72,-8.82 -0.67,3.01 -1.94,6.55 -2.78,9.01 -1.33,3.88 -2.8,7.72 -4.09,11.6 -2.02,6.07 -3.93,19.12 -12.12,19.12 -15.56,0 -26.15,-2.5 -40.26,-8.57 -6.12,-2.63 -11.61,-5.96 -16.82,-10.1 -2.79,-2.22 -5.7,-5.12 -8.6,-7.19l-19.88 13c-5.29,3.53 -11.86,8.99 -17.5,11.54 -5.6,2.53 -9.47,1.05 -12.41,-4.39l-46.31 -92.98c-2.72,-5.93 -10.3,-18.42 -10.3,-24.35l0 -104.43c0,-5.48 6.26,-15.98 8.83,-21.11l19 -37.97c2.59,-4.94 4.91,-9.91 7.31,-14.93 1.3,-2.72 2.68,-5.59 4.73,-7.83 2.18,-2.37 5.11,-4.04 7.93,-5.54 5.42,-2.88 11.07,-5.5 16.58,-8.23 9.75,-4.84 19.43,-9.49 29.68,-13.21l20.73 -7.54 13.21 -4.99z"/>
  </g>
 </g>
</svg>
