<?xml version="1.0" encoding="UTF-8"?>
<!DOCTYPE svg PUBLIC "-//W3C//DTD SVG 1.1//EN" "http://www.w3.org/Graphics/SVG/1.1/DTD/svg11.dtd">
<!-- Creator: CorelDRAW -->
<svg xmlns="http://www.w3.org/2000/svg" xml:space="preserve" width="25.952mm" height="34.4858mm" version="1.1" style="shape-rendering:geometricPrecision; text-rendering:geometricPrecision; image-rendering:optimizeQuality; fill-rule:evenodd; clip-rule:evenodd"
viewBox="0 0 227.6 302.45"
 xmlns:xlink="http://www.w3.org/1999/xlink"
 xmlns:xodm="http://www.corel.com/coreldraw/odm/2003">
 <defs>
  <style type="text/css">
   <![CDATA[
    .fil1 {fill:black}
    .fil0 {fill:#5C7D34}
   ]]>
  </style>
 </defs>
 <g id="__x0023_Layer_x0020_1">
  <metadata id="CorelCorpID_0Corel-Layer"/>
  <g id="_13841467824">
   <path class="fil0" d="M156.56 138.13c-1.23,1.9 -2.82,3.08 -3.35,5 6.95,2.47 5.87,12.34 5.87,18.72l-0 102.1c0,3.06 -0.31,6.5 1.77,8.93 3.99,4.65 6.08,8.35 8.63,14.03 0.99,2.21 2.44,6.46 3.28,10.97l-160.02 0c-8.49,0 -7.13,-11.01 -5.92,-16.48 1.45,-6.52 4.93,-15.93 8.8,-21.28 1.39,-1.91 2.64,-3.14 4.1,-4.85 0.48,-0.56 0.37,-1.95 0.39,-2.64 0.59,-29.28 -0.05,-58.61 -0.05,-87.89 0,-11.28 -0.73,-12.2 1.82,-22.26 1.69,-6.66 7.29,-7.61 13.17,-7.74 -1.09,-3.42 -3.08,-15.48 -3.81,-18.58 -6.19,-26.17 -11.28,-52.61 -17.82,-78.69 -0.49,-1.94 -1.55,-5.64 -2.16,-9.09l9.93 -2.25c13.08,-2.96 12.85,-1.73 15.6,10.78 7.23,32.87 15.22,65.57 22.17,98.51l0.51 2.7c32.36,0 64.73,0 97.09,0z"/>
   <path class="fil1" d="M12.55 289.87l174.18 0c-0.34,-4.62 -2.32,-10.01 -4.3,-13.99 -0.66,-1.34 -4.38,-8.04 -6.06,-8.08l-153.43 -0c-1.65,0.4 -6.05,8.08 -6.77,9.78 -1.5,3.52 -3.27,8.26 -3.62,12.3zm13.55 -145.83l0 0 0 111.18 146.45 0 0 -111.18 -146.45 0zm77.35 -100.86l0 0 0 88.9 15.27 0 0 -88.9 -15.27 0zm102.83 23.6l0 0c-2.62,-1.2 -5.69,-3.79 -7.79,-5.29 -2.3,-1.63 -4.71,-3.32 -7.18,-4.74 -1.3,2.82 -4.15,7.03 -5.4,9.04l-24.13 38.98c-3.13,5.06 -6.36,10.06 -9.5,15.11 -1.15,1.86 -5.56,8.71 -7.32,12.19l19.56 0c7.24,-10.84 14.01,-21.98 21.26,-32.82 3.08,-4.61 18.08,-26.8 20.5,-32.48zm4.12 -11.73l0 0c0.46,-5.27 2.33,-10.4 2.85,-15.57l-13.1 8.74c2.26,1.82 7.29,5.05 10.25,6.83zm-173.92 60.43l0 0c2.07,-0.62 4.95,-1.19 6.24,-1.04 7.04,0.82 9.02,11.78 -3.52,12.82 0.24,1.63 0.78,3.14 1.02,4.82l34.22 0 -18.04 -80.21c-1,-4.73 -2.17,-9.45 -3.23,-14.16 -0.61,-2.69 -1.21,-5.4 -1.74,-8.1 -0.19,-0.98 -0.48,-2.27 -0.65,-3.46l-25.36 5.61c-1.74,0.39 -5.3,1 -7.31,1.68 0.26,2.68 1.26,5.18 1.65,7.85 1.97,-0.54 4.85,-1.16 5.66,-1.16 7.05,0.07 10.08,11.8 -2.95,12.86 0.42,4.17 2.3,8.64 2.86,12.87 12.81,-4.66 17.04,10.63 2.71,11.88 0.42,4.32 2.32,8.46 2.87,12.87 12.98,-4.74 17.37,10.64 2.7,11.88 0.43,4.15 2.33,8.66 2.87,12.97zm66.97 -84.88l0 0 15.27 0 0 -16.61c0,-0.71 -0.43,-1.14 -1.14,-1.14 -3.67,0 -7.41,-0.36 -11.05,-0.28 -0.47,0.01 -3.08,-0.01 -3.08,0.8l0 17.22zm27.24 -0.03l0 0c5.89,-0.23 16.07,-1.46 16.07,6.32l0 42.7c0,8.3 -11.96,8.4 -11.96,0l0 -36.41 -4.13 0 0 88.9 0.23 0c0.85,-1.82 2.71,-4.73 3.4,-5.89 2.5,-4.18 5.06,-8.32 7.63,-12.46 4.25,-6.86 8.7,-13.71 12.82,-20.64l23.91 -38.6c4.42,-7.13 4.6,-9.41 11.92,-14.26 4.62,-3.06 27.74,-20.15 30.94,-20.15 3.59,0 6.31,3.25 6.05,6.76l-0.01 0.06 -4.64 27.01c-0.98,5.68 -1.31,12.25 -4.61,17.14l-36.89 57.17c-1.08,1.61 -2.43,3.03 -2.94,4.87 6.95,2.47 6.62,10.65 6.62,17.04l-0 102.1c0,3.06 -0.31,6.5 1.77,8.93 3.99,4.65 6.08,8.35 8.63,14.03 2.7,6.02 8.78,27.26 -3.08,27.26l-185.64 0c-8.49,0 -7.13,-11.01 -5.91,-16.48 1.45,-6.52 4.93,-15.93 8.8,-21.28 1.39,-1.91 2.64,-3.14 4.1,-4.85 0.48,-0.56 0.37,-1.95 0.39,-2.64 0.59,-29.28 -0.05,-58.61 -0.05,-87.89 0,-6.07 -0.21,-12.12 -0.29,-18.19 -0.04,-3.52 -0.11,-7.86 0.75,-11.28 1.69,-6.66 7.29,-7.61 13.17,-7.74 -1.09,-3.42 -1.73,-8.26 -2.46,-11.36 -6.19,-26.17 -11.28,-52.61 -17.82,-78.69 -0.86,-3.41 -3.48,-12.22 -2.31,-15.58 1.19,-3.41 6.21,-3.92 9.26,-4.61l32.8 -7.42c13.08,-2.96 12.85,-1.73 15.6,10.78 7.23,32.87 15.22,65.57 22.17,98.51 0.21,0.97 1.36,7.74 1.93,8.32 0.24,0.25 2.87,0.17 4.55,0.1l0 -119.37c0,-8.88 8.11,-12.08 15.72,-12.67 4.96,-0.38 15.31,0.41 19.14,3.77 6.07,5.31 4.53,18.66 4.34,26.71z"/>
  </g>
 </g>
</svg>
