<?xml version="1.0" encoding="UTF-8"?>
<!DOCTYPE svg PUBLIC "-//W3C//DTD SVG 1.1//EN" "http://www.w3.org/Graphics/SVG/1.1/DTD/svg11.dtd">
<!-- Creator: CorelDRAW -->
<svg xmlns="http://www.w3.org/2000/svg" xml:space="preserve" width="43.798mm" height="29.5896mm" version="1.1" style="shape-rendering:geometricPrecision; text-rendering:geometricPrecision; image-rendering:optimizeQuality; fill-rule:evenodd; clip-rule:evenodd"
viewBox="0 0 611.39 413.05"
 xmlns:xlink="http://www.w3.org/1999/xlink"
 xmlns:xodm="http://www.corel.com/coreldraw/odm/2003">
 <defs>
  <style type="text/css">
   <![CDATA[
    .fil1 {fill:black}
    .fil0 {fill:#FFCF36}
   ]]>
  </style>
 </defs>
 <g id="__x0023_Layer_x0020_1">
  <metadata id="CorelCorpID_0Corel-Layer"/>
  <g id="_14097312496">
   <path class="fil0" d="M469.75 208.78c22.13,0 37.55,-2.34 55.23,9.76 10.49,7.18 30.54,25.92 30.54,39.91 0,7.74 -5.42,14 -11.94,15.52 7.07,10.56 16.79,8.5 25.67,26.3 6.38,12.78 9.69,26.29 9.94,39.62l0 3.1c-0.33,18.61 -12.18,37.24 -24.6,52.4 -28.72,2.74 -53.6,7.08 -75.96,-6.86 -22.36,-13.94 -33.02,-58.61 -33.02,-58.61l-261.58 2.31 -2.79 19.9c-0.86,10.33 -5.99,21.54 -9.94,29.47 -3.77,7.57 -8.71,14.23 -14.5,19.95 -5.64,1.21 -5.47,-2.3 -43.75,-2.3 -38.28,0 -50.29,-64.88 -50.29,-64.88l-47.61 -2.06c0,0 -10.79,-32.38 1.96,-88.31 12.76,-55.93 55.22,-60.6 83.89,-84.38 24.04,-19.94 138.49,-27.83 174.83,-29.85 1.6,2.43 2.95,4.9 4.01,7.33 2.43,5.59 -6.27,15.01 -6.27,22.54 0,3.77 -12.21,36.35 -14.68,42.64 -3.68,9.36 -12.51,31.1 -11.32,42.99 2.91,29.07 23.09,55.28 54.66,55.28l62.01 -1.85c4.77,0 8.42,-1.88 11.17,-4.76 6.67,3.01 14.43,4.96 23.38,5.02 40.72,0.26 28.95,-92.72 25.51,-108.91 -3.43,-16.19 -29.44,-107.44 -29.44,-107.44l11.45 11.65c20.36,39.12 43.03,75.96 63.43,114.52z"/>
   <path class="fil1" d="M329.58 22.69l0 -4.78c33.81,0 30.53,-3.11 38.21,8.36 -6.77,0 -13.53,-0.01 -20.3,0 -5.58,0 -17.91,2.25 -17.91,-3.58zm124.19 25.08l0 0c3.3,-0.27 11.98,-2.46 14.33,-3.58l0 35.82 -14.33 0 0 -32.24zm-2.39 256.73l0 0c0.4,-18.01 12.39,-43.22 19.78,-55.45 5.75,-9.51 26.56,-41.27 37.54,-41.27 30.51,0 49.33,13.19 64.48,35.82 -25.71,0 -51.22,6.96 -74.22,16.53 -20.68,8.6 -36.33,22.41 -46.3,42.06l-1.28 2.31zm75.23 -35.82l0 0c9.23,-0.21 19.2,-6.28 26.99,-3.21 9.89,3.91 21.82,14.25 27.89,23.55 31.77,48.64 -4.65,106.23 -56.08,106.23 -54.22,0 -74.41,-60.77 -65.44,-71.33 6.99,-8.24 3.06,-0.76 9.72,-14.25 3.01,-6.09 5.1,-12.13 10.35,-13.53 1.94,9.15 -7.17,9.55 -7.17,31.05 0,19.51 8.35,31.52 20.55,41.54 15.46,12.7 36.92,14.47 55.51,5.86 9.5,-4.4 18.74,-13.81 23.49,-23.08 14.4,-28.11 0.88,-63.64 -28.6,-73.77 -19.71,-6.77 -12.43,1.65 -17.21,-9.06zm-32.24 14.33l0 0 15.32 -7.58c3.21,13.24 22.89,38.93 22.89,49.37 0,3.2 -9.75,15.48 -18.34,-1.96 -7.86,-15.97 -11.88,-21.95 -19.87,-39.83zm117.02 43.59l0 0 0 3.1c-0.38,21.38 -8.69,42.11 -25.02,58.44 -40.81,40.81 -110.13,29.63 -137.01,-20.73 -3.77,-7.06 -8.73,-20.47 -8.73,-30.67 -4.55,0.1 -8.73,1.62 -12.23,2.1 -12.76,1.77 -193.03,0.29 -207.49,0.29 -0.86,10.33 -5.99,21.54 -9.94,29.47 -24.08,48.31 -95.63,59.88 -134.28,21.6 -15.04,-14.89 -21.67,-30.16 -26.55,-51.07 -8.59,0 -26.94,1 -34.39,-0.24 -7.92,-1.32 -15.76,-9.02 -15.76,-18.87l0 -11.71c0.06,-27.16 1,-48.91 12.27,-75.13 16.46,-38.31 46.35,-68.14 84.45,-85.11 3.32,-1.48 8.86,-3.45 12.1,-4.62 4.19,-1.51 9.46,-2.05 12.98,-3.74 -1.14,-4.26 -1.53,-2.67 -3.97,-6.78 -6.16,-10.38 -10.53,-26.22 -1.17,-36.57 2.34,-2.59 6.67,-5.61 11.11,-5.61l139.71 0c18.35,0 37.72,17.27 44.57,33.05 2.43,5.59 4.39,13.16 4.39,20.68 0,3.77 -12.21,36.36 -14.68,42.64 -3.68,9.36 -12.51,31.1 -11.32,42.99 2.91,29.07 23.09,55.28 54.66,55.28l51.35 0c10.19,0 15.28,-8.57 17.41,-17.22 8.76,-35.64 2.53,-79 -4.57,-112.64 -4.88,-23.12 -12.32,-40.03 -16.42,-57.61 -7.11,-0.16 -5.73,-1.75 -13.48,-0.4 -15.4,2.69 -45.04,13.87 -45.04,-1.99 0,-12.83 19.99,-10.85 38.48,-15.26 8.26,-1.97 3.33,-9.13 5.64,-19.54 2.77,-12.5 -3.68,-8.2 -5.91,-16.55 -13.52,0 -28.5,0.62 -41.83,0.04 -24.8,-1.08 -28.69,-44.22 -3.54,-44.22l37.02 0c4.51,0 8.71,3.02 11.07,5.64 2.55,2.84 4.8,6.17 7.34,9.38 2.66,3.37 13.83,15.06 13.83,18.42 0,6.02 -6.74,11.49 2.25,9.72 23.43,-4.64 45.6,-13.1 69.11,-17.29 7.87,-1.4 18.2,3.89 18.2,13.54 0,59 5.58,58.51 -33.44,58.51l11.76 20.49c3.97,6.51 3.48,16.53 -4.59,16.53 -9.26,0 -12.74,-9.98 -16.65,-16.78 -2.42,-4.2 -9.88,-16.22 -10.81,-20.24l-20.3 0c2.02,8.65 5.8,18.12 8.5,27.32 7.05,23.95 11.11,48.91 14.72,73.65 0.87,5.93 0.34,10.04 0.66,16.06l-0.03 33.4c-0.97,18.29 -5.49,38.39 -20.23,49.03 -16.47,11.89 -76.24,8.1 -94.84,1.63 -26.48,-9.21 -48.49,-37.43 -48.49,-68.54 0,-16.15 5.02,-29.8 9.41,-41.93 2.12,-5.84 4.1,-11.46 6.46,-17.42 1.44,-3.65 5.34,-13.71 5.62,-17.07 -30.25,0 -60.5,0 -90.75,0 -56.7,0 -100.43,-2.04 -140.61,38.51 -20.9,21.09 -22.65,26.54 -34.44,50.34l-1.88 3.3 1.39 1c18.76,-28.02 95.53,-51.76 95.53,-27.46 0,9.84 -11.76,8.4 -18.25,9.21 -9.77,1.23 -12.99,1.17 -21.67,3.41 -11.42,2.95 -25.28,10.73 -32.63,17.52l-6.72 6.42c-6.6,7.1 -11.44,13.47 -15.87,22.34 -5.55,11.09 -9.95,24.24 -9.95,40.21 0,1.67 1.63,2.39 3.58,2.39l222.1 0 0 -19.11c0,-26.98 -17.26,-49.57 -38.13,-62.18 -12.01,-7.26 -24.5,-9.29 -38.8,-11.36 -9.12,-1.32 -16.61,1.72 -19.79,-5.4 -1.33,-2.99 -0.73,-6.76 1.22,-9.33 3.84,-5.05 13.15,-3.68 19.06,-3.68 38.54,0 74.03,25.51 87.88,60.19 5.6,14.02 7.65,33.51 7.65,50.86l154.04 0c7.26,0 8.71,-1.19 15.52,-1.19 0,-29.18 8.36,-52.8 18.69,-73.26 6.44,-12.76 26,-40.89 37.43,-48.54l-15.48 -27.51c-3.84,-6.46 -6.01,-17.87 5.93,-17.87 8.3,0 22.4,29.7 26.27,37.02 22.13,0 38.95,2.91 56.63,15.02 10.49,7.18 30.54,25.92 30.54,39.91 0,7.74 -5.42,14.01 -11.94,15.52 7.07,10.56 12.23,8.85 21.11,26.65 6.37,12.78 9.69,26.29 9.94,39.62zm-542.13 12.53l0 0 15.52 0c1.6,19.25 26.69,40.6 45.38,40.6l9.55 0c20.14,0 46.15,-21.55 46.57,-40.6l15.52 0c-2.02,24.21 -20.75,41.28 -40.17,50.59 -30.39,14.57 -72.62,0.66 -89.16,-38.28 -1.73,-4.07 -2.62,-7.62 -3.22,-12.31z"/>
  </g>
 </g>
</svg>
