<?xml version="1.0" encoding="UTF-8"?>
<!DOCTYPE svg PUBLIC "-//W3C//DTD SVG 1.1//EN" "http://www.w3.org/Graphics/SVG/1.1/DTD/svg11.dtd">
<!-- Creator: CorelDRAW -->
<svg xmlns="http://www.w3.org/2000/svg" xml:space="preserve" width="36.3417mm" height="36.3466mm" version="1.1" style="shape-rendering:geometricPrecision; text-rendering:geometricPrecision; image-rendering:optimizeQuality; fill-rule:evenodd; clip-rule:evenodd"
viewBox="0 0 431.18 431.24"
 xmlns:xlink="http://www.w3.org/1999/xlink"
 xmlns:xodm="http://www.corel.com/coreldraw/odm/2003">
 <defs>
  <style type="text/css">
   <![CDATA[
    .fil1 {fill:black}
    .fil0 {fill:#F39880}
   ]]>
  </style>
 </defs>
 <g id="__x0023_Layer_x0020_1">
  <metadata id="CorelCorpID_0Corel-Layer"/>
  <g id="_13527706592">
   <path class="fil0" d="M353.8 34.67c27.62,4.75 33.31,13.58 40.75,39.15 0,0 -31.86,29.87 -50.77,43.72 -18.91,13.85 -83.9,84.31 -83.9,84.31 22.48,53.39 -22.15,62.88 -33.08,100.46 -2.98,10.23 -6.87,67.1 -39.32,97.24 -20.98,19.48 -67.82,21.18 -87.22,14.14 -49.4,-17.95 -73.45,-57.92 -86.63,-82.89 -13.18,-24.98 -7.35,-58.35 15.53,-86.32 22.89,-27.97 78.32,-30.97 94.55,-42.61 16.23,-11.64 16.38,-44.85 39.26,-53.79 22.89,-8.94 65.65,24.07 65.65,24.07l125.16 -137.47z"/>
   <path class="fil1" d="M356.43 93.46c5.81,-3.03 11.77,-5.76 17.6,-8.74 3.95,-2.02 38.94,-36.76 40.3,-40.01 -0.02,-15.56 -12.3,-27.84 -27.92,-27.85 -3.06,0.98 -23.31,22.53 -27.41,26.62 -3.56,3.56 -10.43,9.74 -12.92,14.13 -1.03,1.81 -1.87,3.89 -2.74,5.79 -1.8,3.92 -3.77,7.75 -5.82,11.55l18.9 18.52zm-125.94 126.71l0 0c4.42,-3.47 9.43,-9.43 13.21,-13.22l71.44 -74.12c3.47,-4.34 7.46,-8.27 11.46,-12.11 3.32,-3.18 6.97,-6.47 9.91,-10 2.26,-2.71 3.55,-4.73 6.13,-6.79l-15.59 -15.23c-2.12,2.68 -4.33,3.93 -7.03,6.31 -7.73,6.8 -14.13,14.67 -22.18,21.4 -3.39,2.84 -6.58,6.18 -9.7,9.32 -4.07,4.1 -8.15,8.16 -12.49,11.98 -2.5,2.2 -4.71,4.7 -7.07,7.06l-44.79 43.11c-3.67,3.68 -9.42,8.51 -12.8,12.8 7.25,2.81 16.68,12.24 19.49,19.49zm-163.59 69.11l0 0c0,-2.59 2.34,-5.06 4.57,-6.07 3.73,-1.71 7.53,-0.24 10.42,2.34 8.91,7.97 17.61,17.11 26.02,25.64 9.06,9.19 18.04,18.47 27.17,27.59 4.65,4.65 15.43,12.31 13.32,19.67 -0.8,2.78 -3.43,5.81 -6.51,5.81 -2.54,0 -5.01,0.05 -7.09,-1.62 -2.1,-1.69 -4.59,-4.91 -6.61,-6.93l-52.74 -52.74c-2.02,-2.02 -5.24,-4.51 -6.93,-6.61 -1.67,-2.08 -1.62,-4.55 -1.62,-7.09zm167.49 -135.42l0 0c-20.55,-13.45 -40.79,-19.39 -62.83,-4.49 -2.06,1.39 -3.42,3.02 -5.28,4.58 -2.24,1.87 -3.25,3.12 -4.9,5.49 -5.29,7.59 -6.92,13.21 -10.12,21.51 -3.83,9.95 -9.48,17.03 -17,24.52 -9.38,9.34 -29.28,12.59 -41.87,15.44 -17.09,3.87 -35.01,8.71 -48.18,20.97 -31.56,29.37 -35.41,62.7 -13.32,99.41 9.84,16.35 26.94,35.18 41.95,46.9l17.06 12.17c17.98,12.03 39.04,17.05 60.24,11.48 20.5,-5.39 37.04,-19.63 47.93,-37.52 7.91,-13 11.93,-32.41 14.88,-47.31 3.88,-19.64 11.41,-34.48 29.8,-43.57 11.97,-5.92 25.8,-8.44 34.87,-19.06 19.6,-22.94 14.99,-44.28 -0.3,-67.65l-32.06 32.53c-1.74,2.08 -3.1,3.93 -5.12,5.88 -3.08,2.98 -4.46,4.81 -4.67,9.02 -0.3,6.12 -1.06,9.73 -3.62,15.48 -10.62,23.91 -37.38,32.37 -61.07,22.34 -3.9,-1.65 -7.23,-4.18 -10.35,-7.02l-2.63 -2.46c-9,-9.34 -13.03,-19.69 -13.03,-32.67 0,-17.26 11.95,-34.68 27.95,-41.07 5,-2 9.03,-2.86 14.34,-3.21 2.92,-0.2 4.72,-0.29 6.93,-2.44l40.42 -39.31zm-72.77 86.86l0 0c0,20.71 21.71,34.67 40.59,26.18 12.28,-5.53 16.21,-15.82 16.21,-28.69 0,-12.71 -12.76,-25.47 -25.47,-25.47l-5.02 0c-14.33,0 -26.31,14.08 -26.31,27.98zm265.63 -184.14l0 0c1.93,3.12 3.48,7.2 1.67,10.67 -1.42,2.72 -4.47,4.02 -7.44,4.02 -3.86,0 -4.3,-1.22 -6.37,-2.78l-5.29 4.98c1.21,1.69 2.93,4.01 2.93,5.68 0,4.5 -1.94,8.09 -6.51,9.23 -4,1 -5.64,-0.7 -8.24,-2.65l-4.98 5.28c1.83,2.73 3.24,5.03 2.19,8.64 -0.88,3.05 -3.51,5.47 -6.67,5.95 -3.87,0.59 -7.09,-1.74 -9.33,-4.66 -9.17,4.7 -19.15,7.98 -25.96,16.14 -6.9,8.26 -15.27,16.31 -22.89,23.94 -4.14,4.14 -8.29,8.28 -12.39,12.46 -2.77,2.83 -5.72,5.77 -8.25,8.81 -3.71,4.44 -8.04,8.67 -12.13,12.78 -2.26,2.27 -6.43,6.08 -8.5,8.82 1.84,3.27 4.18,6.2 6.13,9.42 15.47,25.68 17.32,52.53 -0.74,77.49 -7.61,10.52 -15.98,15.72 -27.72,20.59 -10.22,4.24 -18.96,7.28 -27.05,15.34 -5.74,5.73 -8.22,14.19 -9.93,21.9 -2.08,9.38 -3.31,18.9 -6.17,28.15l-6.23 16.46c-9.44,21.91 -23.33,35.13 -43.45,47.29 -14.29,8.64 -27.3,10.7 -43.75,10.7 -35.4,0 -70,-29.61 -93.26,-53.75 -2.65,-2.75 -4.66,-5.97 -7.16,-8.83 -22.31,-25.49 -36.7,-60.96 -26.31,-94.73 1.02,-3.3 1.79,-5.56 3.34,-8.66 1.25,-2.51 2.07,-5.05 3.53,-7.49 2.83,-4.72 5.64,-9.45 9.03,-13.79 19.49,-24.92 43.04,-34.7 73.53,-40.75 6.15,-1.22 12.33,-2.47 18.38,-4.11 14.13,-3.82 19.71,-14.27 25.19,-26.75 6.19,-14.11 11.19,-26.83 24.44,-36.04 25.76,-17.91 51.35,-15.81 77.5,-0.07 3.06,1.84 5.8,4.06 8.9,5.81 3.08,-2.28 6.83,-6.45 9.38,-9.07 3.98,-4.08 8.17,-8.5 12.57,-12.01l22.66 -21.67c3.99,-3.52 7.53,-7.52 11.27,-11.26 8.07,-8.07 15.09,-12.07 20.33,-22.61 2.25,-4.51 4.41,-9.06 6.74,-13.53 -9.84,-7.71 -2.93,-21.74 10.06,-13.63l5.01 -5.31c-2.07,-2.88 -3.77,-4.55 -2.28,-8.82 1.45,-4.16 4.33,-6.66 8.8,-5.66 2.32,0.52 3.86,1.56 5.69,2.7l5.32 -5.01c-1.65,-2.12 -2.92,-2.7 -2.92,-6.53 0,-4.32 2.4,-7.4 6.65,-8.24 3.34,-0.66 5.51,0.75 8.05,2.46 3.26,-2.3 4.27,-3.82 8.76,-3.91l5.51 0c21.32,0 42.31,21.03 42.31,42.34l0 5.44c-0.08,4.54 -1.59,5.52 -3.92,8.82z"/>
  </g>
 </g>
</svg>
